<svg height="25" viewBox="0 0 64 64" width="25" xmlns="http://www.w3.org/2000/svg"><g id="Filled_Outline" data-name="Filled Outline"><path d="m53 24.267c0 18.366-21 36.733-21 36.733s-21-18.367-21-36.733a21 21 0 1 1 42 0z" fill="#ff9800"/><circle cx="32" cy="24" fill="#eee" r="17"/><path d="m32 2a22.159 22.159 0 0 0 -22 22.267c0 7.84 3.6 16.542 10.7 25.86a86.428 86.428 0 0 0 10.642 11.626 1 1 0 0 0 1.316 0 86.428 86.428 0 0 0 10.642-11.626c7.1-9.318 10.7-18.02 10.7-25.86a22.159 22.159 0 0 0 -22-22.267zm0 57.646c-3.527-3.289-20-19.5-20-35.379a20 20 0 1 1 40 0c0 15.88-16.473 32.09-20 35.379z"/><path d="m32 6a18 18 0 1 0 18 18 18.021 18.021 0 0 0 -18-18zm0 34a16 16 0 1 1 16-16 16.019 16.019 0 0 1 -16 16z"/><g fill="#ff9800"><path d="m24 25h16v5h-16z"/><path d="m28 12h8v4h-8z"/><path d="m25 30h4v4h-4z"/><path d="m35 30h4v4h-4z"/></g><path d="m41 18a3 3 0 0 0 -3-3h-1v-3a1 1 0 0 0 -1-1h-8a1 1 0 0 0 -1 1v3h-1a3 3 0 0 0 -3 3v1h-2v2h2v9a1 1 0 0 0 1 1v3a1 1 0 0 0 1 1h4a1 1 0 0 0 1-1v-3h4v3a1 1 0 0 0 1 1h4a1 1 0 0 0 1-1v-3a1 1 0 0 0 1-1v-9h2v-2h-2zm-12-5h6v2h-6zm-3 4h12a1 1 0 0 1 1 1v6h-14v-6a1 1 0 0 1 1-1zm13 12h-14v-3h14zm-11 4h-2v-2h2zm10 0h-2v-2h2z"/><circle cx="35.5" cy="27.5" r="1.5"/><circle cx="28.5" cy="27.5" r="1.5"/></g></svg>