<?xml version="1.0" encoding="UTF-8"?>
<svg xmlns="http://www.w3.org/2000/svg" xmlns:xlink="http://www.w3.org/1999/xlink" width="375pt" height="374.999991pt" viewBox="0 0 375 374.999991" version="1.2">
<defs>
<clipPath id="clip1">
  <path d="M 19 55.78125 L 356 55.78125 L 356 107 L 19 107 Z M 19 55.78125 "/>
</clipPath>
<clipPath id="clip2">
  <path d="M 0 291 L 375 291 L 375 319.03125 L 0 319.03125 Z M 0 291 "/>
</clipPath>
</defs>
<g id="surface1">
<path style=" stroke:none;fill-rule:nonzero;fill:rgb(2.749634%,58.428955%,100%);fill-opacity:1;" d="M 71.664062 282.484375 L 99.191406 282.484375 C 98.597656 281.246094 98.316406 279.570312 98.316406 278.066406 L 98.316406 252.398438 C 98.316406 252.828125 97.746094 253.234375 97.410156 253.613281 C 96.089844 255.09375 94.253906 255.847656 92.273438 255.964844 C 92.128906 255.972656 91.96875 255.851562 91.820312 255.851562 L 91.816406 255.851562 C 87.886719 255.851562 84.628906 252.800781 84.398438 248.875 C 84.351562 248.085938 84.3125 247.800781 84.273438 246.558594 L 71.664062 246.558594 Z M 71.664062 282.484375 "/>
<path style=" stroke:none;fill-rule:nonzero;fill:rgb(2.749634%,58.428955%,100%);fill-opacity:1;" d="M 143.1875 256.105469 C 143.039062 256.105469 142.890625 256.101562 142.742188 256.089844 C 140.765625 255.976562 138.945312 255.09375 137.625 253.613281 C 137.289062 253.234375 136.746094 252.828125 136.746094 252.402344 L 136.746094 278.066406 C 136.746094 279.570312 136.40625 281.246094 135.816406 282.488281 L 303.488281 282.488281 L 303.488281 246.5625 L 150.734375 246.5625 C 150.695312 247.800781 150.65625 248.214844 150.609375 249.003906 C 150.378906 252.925781 147.117188 256.105469 143.1875 256.105469 Z M 143.1875 256.105469 "/>
<g clip-path="url(#clip1)" clip-rule="nonzero">
<path style=" stroke:none;fill-rule:nonzero;fill:rgb(2.749634%,58.428955%,100%);fill-opacity:1;" d="M 20.191406 94.183594 L 37.570312 94.183594 L 37.570312 96.664062 L 19.941406 96.664062 C 19.671875 99.757812 19.527344 102.855469 19.527344 106.574219 L 355.488281 106.574219 C 355.488281 102.855469 355.339844 99.757812 355.074219 96.664062 L 89.019531 96.664062 L 89.019531 94.183594 L 354.824219 94.183594 C 350.875 59.496094 330.554688 55.78125 330.554688 55.78125 L 44.457031 55.78125 C 44.457031 55.78125 24.140625 59.496094 20.191406 94.183594 Z M 76.003906 96.664062 L 49.347656 96.664062 L 49.347656 94.183594 L 76.003906 94.183594 Z M 76.003906 96.664062 "/>
</g>
<path style=" stroke:none;fill-rule:nonzero;fill:rgb(2.749634%,58.428955%,100%);fill-opacity:1;" d="M 91.816406 253.625 C 91.914062 253.625 92.015625 253.625 92.113281 253.617188 C 94.847656 253.457031 96.960938 251.113281 96.800781 248.382812 C 95.527344 226.617188 97.695312 215.011719 100.796875 209.253906 L 100.796875 236.757812 C 102.65625 234.226562 105.230469 232.539062 108.449219 232.539062 C 113.464844 232.539062 117.53125 236.613281 117.53125 241.621094 L 117.53125 246.558594 L 117.53125 241.621094 C 117.53125 236.613281 121.601562 232.539062 126.613281 232.539062 C 129.835938 232.539062 132.410156 234.226562 134.269531 236.761719 L 134.269531 209.257812 C 136.746094 215.015625 139.507812 226.617188 138.234375 248.382812 C 138.074219 251.113281 140.160156 253.457031 142.894531 253.617188 C 142.992188 253.625 143.089844 253.625 143.1875 253.625 C 145.792969 253.625 147.980469 251.59375 148.132812 248.960938 C 149.664062 222.792969 146.390625 205.71875 138.398438 198.214844 C 134.925781 194.953125 131.53125 194.488281 129.785156 194.445312 C 129.683594 194.4375 129.582031 194.527344 129.476562 194.527344 L 105.53125 194.527344 C 105.421875 194.527344 105.316406 194.4375 105.210938 194.445312 C 103.464844 194.492188 100.074219 195.007812 96.609375 198.265625 C 88.617188 205.765625 85.339844 222.816406 86.875 248.984375 C 87.027344 251.617188 89.210938 253.628906 91.816406 253.625 Z M 91.816406 253.625 "/>
<path style=" stroke:none;fill-rule:nonzero;fill:rgb(2.749634%,58.428955%,100%);fill-opacity:1;" d="M 108.542969 233.964844 C 104.3125 233.964844 100.796875 237.390625 100.796875 241.621094 L 100.796875 278.066406 C 100.796875 282.296875 104.3125 285.722656 108.542969 285.722656 C 112.777344 285.722656 116.292969 282.296875 116.292969 278.066406 L 116.292969 241.621094 C 116.292969 237.390625 112.777344 233.964844 108.542969 233.964844 Z M 108.542969 233.964844 "/>
<path style=" stroke:none;fill-rule:nonzero;fill:rgb(2.749634%,58.428955%,100%);fill-opacity:1;" d="M 126.519531 233.964844 C 122.289062 233.964844 118.773438 237.390625 118.773438 241.621094 L 118.773438 278.066406 C 118.773438 282.296875 122.289062 285.722656 126.519531 285.722656 C 130.75 285.722656 134.269531 282.296875 134.269531 278.066406 L 134.269531 241.621094 C 134.269531 237.390625 130.75 233.964844 126.519531 233.964844 Z M 126.519531 233.964844 "/>
<path style=" stroke:none;fill-rule:nonzero;fill:rgb(2.749634%,58.428955%,100%);fill-opacity:1;" d="M 122.183594 191.855469 C 127.582031 189.933594 131.449219 184.78125 131.449219 178.722656 C 131.449219 171.027344 125.207031 164.789062 117.503906 164.789062 C 109.800781 164.789062 103.558594 171.027344 103.558594 178.722656 C 103.558594 184.78125 107.425781 189.933594 112.824219 191.855469 C 114.289062 192.375 115.863281 192.660156 117.503906 192.660156 C 119.144531 192.660156 120.71875 192.375 122.183594 191.855469 Z M 122.183594 191.855469 "/>
<path style=" stroke:none;fill-rule:nonzero;fill:rgb(2.749634%,58.428955%,100%);fill-opacity:1;" d="M 41.289062 113.386719 L 41.289062 260.804688 L 33.230469 260.804688 L 33.230469 282.484375 L 60.503906 282.484375 L 60.503906 260.804688 L 51.828125 260.804688 L 51.828125 113.386719 Z M 41.289062 113.386719 "/>
<path style=" stroke:none;fill-rule:nonzero;fill:rgb(2.749634%,58.428955%,100%);fill-opacity:1;" d="M 322.703125 113.386719 L 322.703125 260.804688 L 314.644531 260.804688 L 314.644531 282.484375 L 341.917969 282.484375 L 341.917969 260.804688 L 333.242188 260.804688 L 333.242188 113.386719 Z M 322.703125 113.386719 "/>
<path style=" stroke:none;fill-rule:nonzero;fill:rgb(2.749634%,58.428955%,100%);fill-opacity:1;" d="M 160.921875 211.871094 L 160.921875 218.066406 L 154.722656 218.066406 L 154.722656 242.84375 L 186.957031 242.84375 L 186.957031 218.066406 L 180.136719 218.066406 L 180.136719 211.871094 Z M 177.65625 218.066406 L 164.019531 218.066406 L 164.019531 214.96875 L 177.65625 214.96875 Z M 177.65625 218.066406 "/>
<g clip-path="url(#clip2)" clip-rule="nonzero">
<path style=" stroke:none;fill-rule:nonzero;fill:rgb(2.749634%,58.428955%,100%);fill-opacity:1;" d="M 35.03125 291.15625 L 0.335938 319.03125 L 374.679688 319.03125 L 339.984375 291.15625 Z M 35.03125 291.15625 "/>
</g>
</g>
</svg>
