<?xml version="1.0" encoding="UTF-8"?>
<svg xmlns="http://www.w3.org/2000/svg" xmlns:xlink="http://www.w3.org/1999/xlink" width="375pt" height="374.999991pt" viewBox="0 0 375 374.999991" version="1.2">
<defs>
<clipPath id="clip1">
  <path d="M 45.101562 55.78125 L 330.101562 55.78125 L 330.101562 319 L 45.101562 319 Z M 45.101562 55.78125 "/>
</clipPath>
</defs>
<g id="surface1">
<g clip-path="url(#clip1)" clip-rule="nonzero">
<path style=" stroke:none;fill-rule:nonzero;fill:rgb(2.749634%,58.428955%,100%);fill-opacity:1;" d="M 325.449219 110.285156 L 303.738281 112.28125 L 306.617188 143.496094 L 296.015625 143.496094 C 293.621094 116.984375 291.113281 92.488281 289.316406 83.476562 C 288.191406 77.863281 285.050781 73.328125 280.070312 69.6875 L 280.070312 69.636719 L 279.992188 69.636719 C 264.851562 58.632812 232.71875 55.785156 187.609375 55.785156 C 142.5 55.785156 110.367188 58.632812 95.21875 69.636719 L 95.148438 69.636719 L 95.148438 69.695312 C 90.160156 73.335938 87.023438 77.863281 85.898438 83.480469 C 84.089844 92.496094 81.589844 116.992188 79.203125 143.5 L 68.59375 143.5 L 71.472656 112.289062 L 49.761719 110.285156 L 45.101562 160.855469 L 66.8125 162.855469 L 67.316406 157.347656 L 77.976562 157.347656 C 74.753906 194.570312 72.027344 231.203125 72.027344 231.203125 L 72.027344 286.597656 L 85.898438 286.597656 L 85.898438 309.679688 C 85.898438 314.78125 90.039062 318.914062 95.148438 318.914062 L 104.394531 318.914062 C 109.496094 318.914062 113.636719 314.78125 113.636719 309.679688 L 113.636719 286.597656 L 261.574219 286.597656 L 261.574219 309.679688 C 261.574219 314.78125 265.710938 318.914062 270.820312 318.914062 L 280.070312 318.914062 C 285.171875 318.914062 289.316406 314.78125 289.316406 309.679688 L 289.316406 286.597656 L 303.175781 286.597656 L 303.175781 231.203125 C 303.175781 231.203125 300.460938 194.570312 297.234375 157.347656 L 307.894531 157.347656 L 308.398438 162.855469 L 330.101562 160.855469 Z M 180.675781 69.636719 L 215.347656 69.636719 L 215.347656 88.101562 L 159.871094 88.101562 L 159.871094 69.636719 Z M 86.988281 217.351562 C 89.40625 186.140625 93.515625 135.933594 96.773438 106.5625 L 180.675781 106.5625 L 180.675781 217.351562 Z M 106.710938 268.128906 C 97.769531 268.128906 90.523438 260.902344 90.523438 251.972656 C 90.523438 243.050781 97.769531 235.820312 106.710938 235.820312 C 115.644531 235.820312 122.890625 243.050781 122.890625 251.972656 C 122.886719 260.902344 115.644531 268.128906 106.710938 268.128906 Z M 268.511719 268.128906 C 259.570312 268.128906 252.332031 260.902344 252.332031 251.972656 C 252.332031 243.050781 259.578125 235.820312 268.511719 235.820312 C 277.449219 235.820312 284.695312 243.050781 284.695312 251.972656 C 284.6875 260.902344 277.449219 268.128906 268.511719 268.128906 Z M 194.546875 217.351562 L 194.546875 106.5625 L 278.453125 106.5625 C 281.695312 135.925781 285.804688 186.140625 288.21875 217.351562 Z M 194.546875 217.351562 "/>
</g>
<path style=" stroke:none;fill-rule:nonzero;fill:rgb(2.749634%,58.428955%,100%);fill-opacity:1;" d="M 215.347656 70.183594 L 215.347656 69.636719 L 187.601562 69.636719 C 189.980469 69.636719 192.246094 69.660156 194.546875 69.679688 C 201.972656 69.742188 208.933594 69.902344 215.347656 70.183594 Z M 215.347656 70.183594 "/>
<path style=" stroke:none;fill-rule:nonzero;fill:rgb(2.749634%,58.428955%,100%);fill-opacity:1;" d="M 180.675781 69.679688 C 182.964844 69.660156 185.230469 69.636719 187.601562 69.636719 L 159.863281 69.636719 L 159.863281 70.183594 C 166.285156 69.902344 173.25 69.742188 180.675781 69.679688 Z M 180.675781 69.679688 "/>
</g>
</svg>
