<?xml version="1.0" encoding="UTF-8"?>
<svg xmlns="http://www.w3.org/2000/svg" xmlns:xlink="http://www.w3.org/1999/xlink" width="375pt" height="374.999991pt" viewBox="0 0 375 374.999991" version="1.2">
<defs>
<clipPath id="clip1">
  <path d="M 131 271 L 246 271 L 246 321.484375 L 131 321.484375 Z M 131 271 "/>
</clipPath>
<clipPath id="clip2">
  <path d="M 91 54 L 285.304688 54 L 285.304688 300 L 91 300 Z M 91 54 "/>
</clipPath>
</defs>
<g id="surface1">
<g clip-path="url(#clip1)" clip-rule="nonzero">
<path style=" stroke:none;fill-rule:nonzero;fill:rgb(79.998779%,84.709167%,89.7995%);fill-opacity:1;" d="M 245.550781 296.425781 C 245.550781 310.089844 220.03125 321.203125 188.5625 321.203125 C 157.09375 321.203125 131.574219 310.089844 131.574219 296.425781 C 131.574219 282.761719 157.09375 271.648438 188.5625 271.648438 C 220.03125 271.648438 245.550781 282.761719 245.550781 296.425781 Z M 245.550781 296.425781 "/>
</g>
<g clip-path="url(#clip2)" clip-rule="nonzero">
<path style=" stroke:none;fill-rule:nonzero;fill:rgb(2.749634%,58.428955%,100%);fill-opacity:1;" d="M 285.46875 151.382812 C 285.472656 149.746094 285.429688 148.109375 285.347656 146.476562 C 285.265625 144.84375 285.144531 143.214844 284.980469 141.585938 C 284.816406 139.960938 284.609375 138.339844 284.363281 136.722656 C 284.117188 135.105469 283.828125 133.496094 283.5 131.894531 C 283.171875 130.289062 282.804688 128.699219 282.394531 127.113281 C 281.984375 125.53125 281.535156 123.957031 281.046875 122.398438 C 280.558594 120.835938 280.03125 119.289062 279.464844 117.753906 C 278.898438 116.222656 278.292969 114.703125 277.648438 113.199219 C 277.003906 111.695312 276.320312 110.210938 275.601562 108.742188 C 274.882812 107.273438 274.128906 105.820312 273.335938 104.390625 C 272.542969 102.960938 271.710938 101.550781 270.847656 100.160156 C 269.984375 98.773438 269.085938 97.40625 268.152344 96.0625 C 267.21875 94.71875 266.25 93.402344 265.25 92.105469 C 264.25 90.8125 263.21875 89.542969 262.152344 88.300781 C 261.089844 87.058594 259.992188 85.847656 258.867188 84.660156 C 257.742188 83.472656 256.585938 82.316406 255.398438 81.1875 C 254.214844 80.058594 253.003906 78.960938 251.761719 77.894531 C 250.523438 76.828125 249.253906 75.792969 247.960938 74.789062 C 246.667969 73.785156 245.351562 72.816406 244.007812 71.882812 C 242.667969 70.945312 241.300781 70.042969 239.914062 69.175781 C 238.527344 68.308594 237.117188 67.476562 235.6875 66.683594 C 234.257812 65.886719 232.808594 65.128906 231.339844 64.40625 C 229.871094 63.683594 228.386719 62.996094 226.882812 62.351562 C 225.378906 61.703125 223.863281 61.09375 222.328125 60.523438 C 220.792969 59.953125 219.246094 59.421875 217.683594 58.929688 C 216.125 58.4375 214.550781 57.984375 212.96875 57.574219 C 211.382812 57.160156 209.792969 56.789062 208.1875 56.457031 C 206.585938 56.125 204.976562 55.832031 203.359375 55.582031 C 201.742188 55.332031 200.117188 55.121094 198.488281 54.953125 C 196.863281 54.785156 195.230469 54.660156 193.597656 54.574219 C 191.960938 54.488281 190.328125 54.441406 188.691406 54.441406 C 187.050781 54.4375 185.417969 54.476562 183.78125 54.554688 C 137.636719 56.777344 94.828125 98.605469 91.878906 144.660156 C 91.605469 148.539062 91.566406 152.417969 91.761719 156.300781 C 91.960938 160.1875 92.386719 164.042969 93.050781 167.875 C 93.714844 171.707031 94.605469 175.484375 95.726562 179.207031 C 96.84375 182.933594 98.183594 186.574219 99.746094 190.136719 C 101.304688 193.699219 103.074219 197.15625 105.054688 200.503906 C 107.035156 203.851562 109.207031 207.070312 111.574219 210.15625 C 113.941406 213.242188 116.488281 216.171875 119.210938 218.949219 C 121.933594 221.730469 124.8125 224.332031 127.851562 226.765625 C 139.371094 235.742188 149.839844 245.816406 159.253906 256.984375 C 168.667969 268.148438 176.828125 280.167969 183.726562 293.035156 L 186.507812 298.59375 C 186.710938 298.96875 186.996094 299.269531 187.363281 299.492188 C 187.734375 299.710938 188.132812 299.820312 188.5625 299.820312 C 188.992188 299.820312 189.394531 299.710938 189.761719 299.492188 C 190.132812 299.269531 190.417969 298.96875 190.621094 298.59375 L 192.234375 295.425781 C 199.167969 282.109375 207.414062 269.667969 216.984375 258.097656 C 226.550781 246.523438 237.222656 236.082031 248.996094 226.765625 C 251.828125 224.515625 254.523438 222.117188 257.085938 219.566406 C 259.644531 217.015625 262.054688 214.332031 264.316406 211.511719 C 266.574219 208.691406 268.667969 205.753906 270.597656 202.695312 C 272.523438 199.640625 274.277344 196.484375 275.847656 193.234375 C 277.421875 189.980469 278.808594 186.652344 280.007812 183.242188 C 281.207031 179.835938 282.210938 176.371094 283.019531 172.847656 C 283.828125 169.328125 284.4375 165.773438 284.847656 162.183594 C 285.257812 158.59375 285.464844 154.992188 285.46875 151.382812 Z M 285.46875 151.382812 "/>
</g>
<path style=" stroke:none;fill-rule:nonzero;fill:rgb(8.239746%,42.349243%,86.669922%);fill-opacity:1;" d="M 188.5625 271.648438 C 182.828125 271.660156 177.121094 272.046875 171.441406 272.816406 C 175.976562 279.289062 180.070312 286.027344 183.726562 293.035156 L 186.507812 298.59375 C 186.710938 298.96875 186.996094 299.269531 187.363281 299.492188 C 187.734375 299.710938 188.132812 299.820312 188.5625 299.820312 C 188.992188 299.820312 189.394531 299.710938 189.761719 299.492188 C 190.132812 299.269531 190.417969 298.96875 190.621094 298.59375 L 192.234375 295.425781 C 196.308594 287.734375 200.847656 280.328125 205.855469 273.203125 C 200.125 272.304688 194.363281 271.785156 188.5625 271.648438 Z M 188.5625 271.648438 "/>
<path style=" stroke:none;fill-rule:nonzero;fill:rgb(100%,100%,100%);fill-opacity:1;" d="M 172.164062 103.382812 L 204.964844 103.382812 C 205.894531 103.382812 206.824219 103.429688 207.75 103.519531 C 208.675781 103.613281 209.59375 103.75 210.507812 103.929688 C 211.421875 104.113281 212.320312 104.335938 213.210938 104.605469 C 214.101562 104.875 214.976562 105.191406 215.835938 105.546875 C 216.695312 105.902344 217.535156 106.296875 218.355469 106.738281 C 219.179688 107.175781 219.976562 107.652344 220.75 108.167969 C 221.523438 108.683594 222.269531 109.238281 222.988281 109.828125 C 223.707031 110.417969 224.394531 111.042969 225.054688 111.699219 C 225.710938 112.355469 226.335938 113.042969 226.925781 113.761719 C 227.515625 114.480469 228.070312 115.226562 228.585938 116 C 229.105469 116.773438 229.582031 117.570312 230.019531 118.390625 C 230.460938 119.210938 230.855469 120.050781 231.210938 120.90625 C 231.570312 121.765625 231.882812 122.640625 232.152344 123.53125 C 232.421875 124.421875 232.648438 125.320312 232.828125 126.234375 C 233.011719 127.144531 233.148438 128.0625 233.238281 128.988281 C 233.328125 129.914062 233.375 130.839844 233.375 131.769531 L 233.375 183.988281 C 233.375 184.578125 233.316406 185.160156 233.203125 185.734375 C 233.089844 186.308594 232.917969 186.871094 232.695312 187.414062 C 232.46875 187.953125 232.191406 188.46875 231.867188 188.957031 C 231.539062 189.445312 231.167969 189.898438 230.753906 190.3125 C 230.335938 190.730469 229.886719 191.101562 229.398438 191.425781 C 228.910156 191.753906 228.390625 192.027344 227.847656 192.253906 C 227.304688 192.476562 226.746094 192.648438 226.171875 192.761719 C 225.59375 192.875 225.011719 192.933594 224.425781 192.933594 L 152.703125 192.933594 C 152.117188 192.933594 151.535156 192.875 150.957031 192.761719 C 150.378906 192.648438 149.820312 192.476562 149.277344 192.253906 C 148.734375 192.027344 148.21875 191.753906 147.730469 191.425781 C 147.242188 191.101562 146.789062 190.730469 146.375 190.3125 C 145.957031 189.898438 145.585938 189.445312 145.261719 188.957031 C 144.933594 188.46875 144.660156 187.953125 144.433594 187.414062 C 144.207031 186.871094 144.039062 186.308594 143.925781 185.734375 C 143.808594 185.160156 143.753906 184.578125 143.753906 183.988281 L 143.753906 131.769531 C 143.753906 130.839844 143.796875 129.914062 143.890625 128.988281 C 143.980469 128.0625 144.117188 127.144531 144.296875 126.234375 C 144.480469 125.320312 144.707031 124.421875 144.976562 123.53125 C 145.246094 122.640625 145.558594 121.765625 145.914062 120.90625 C 146.269531 120.050781 146.667969 119.210938 147.105469 118.390625 C 147.546875 117.570312 148.023438 116.773438 148.539062 116 C 149.058594 115.226562 149.609375 114.480469 150.199219 113.761719 C 150.792969 113.042969 151.414062 112.355469 152.074219 111.699219 C 152.730469 111.042969 153.417969 110.417969 154.140625 109.828125 C 154.859375 109.238281 155.605469 108.683594 156.378906 108.167969 C 157.152344 107.652344 157.949219 107.175781 158.769531 106.738281 C 159.589844 106.296875 160.429688 105.902344 161.289062 105.546875 C 162.148438 105.191406 163.023438 104.875 163.914062 104.605469 C 164.804688 104.335938 165.707031 104.113281 166.621094 103.929688 C 167.53125 103.75 168.453125 103.613281 169.378906 103.519531 C 170.304688 103.429688 171.230469 103.382812 172.164062 103.382812 Z M 172.164062 103.382812 "/>
<path style=" stroke:none;fill-rule:nonzero;fill:rgb(79.998779%,84.709167%,89.7995%);fill-opacity:1;" d="M 143.753906 131.769531 L 143.753906 166.214844 L 233.375 166.214844 L 233.375 131.769531 C 233.34375 128.324219 232.714844 124.992188 231.484375 121.773438 L 145.640625 121.773438 C 144.414062 124.992188 143.78125 128.324219 143.753906 131.769531 Z M 143.753906 131.769531 "/>
<path style=" stroke:none;fill-rule:nonzero;fill:rgb(79.998779%,84.709167%,89.7995%);fill-opacity:1;" d="M 162.765625 179.101562 C 162.765625 179.40625 162.738281 179.707031 162.675781 180.003906 C 162.617188 180.300781 162.53125 180.589844 162.414062 180.871094 C 162.296875 181.148438 162.152344 181.417969 161.984375 181.667969 C 161.816406 181.921875 161.625 182.152344 161.40625 182.367188 C 161.191406 182.582031 160.957031 182.773438 160.707031 182.941406 C 160.453125 183.109375 160.1875 183.25 159.90625 183.367188 C 159.625 183.480469 159.332031 183.566406 159.035156 183.625 C 158.738281 183.683594 158.4375 183.710938 158.132812 183.710938 C 157.828125 183.710938 157.527344 183.679688 157.230469 183.617188 C 156.933594 183.558594 156.644531 183.46875 156.363281 183.351562 C 156.085938 183.234375 155.816406 183.089844 155.566406 182.921875 C 155.316406 182.75 155.082031 182.558594 154.867188 182.339844 C 154.65625 182.125 154.464844 181.890625 154.296875 181.636719 C 154.132812 181.382812 153.992188 181.117188 153.875 180.835938 C 153.761719 180.554688 153.675781 180.265625 153.617188 179.964844 C 153.5625 179.667969 153.535156 179.367188 153.539062 179.0625 C 153.539062 178.761719 153.570312 178.460938 153.632812 178.164062 C 153.695312 177.867188 153.785156 177.578125 153.90625 177.296875 C 154.023438 177.019531 154.167969 176.753906 154.339844 176.503906 C 154.511719 176.25 154.703125 176.019531 154.921875 175.808594 C 155.136719 175.59375 155.375 175.40625 155.628906 175.238281 C 155.882812 175.074219 156.152344 174.933594 156.433594 174.820312 C 156.714844 174.707031 157.003906 174.625 157.304688 174.570312 C 157.601562 174.511719 157.902344 174.488281 158.207031 174.492188 C 158.507812 174.488281 158.808594 174.519531 159.105469 174.578125 C 159.398438 174.636719 159.6875 174.726562 159.964844 174.84375 C 160.242188 174.957031 160.507812 175.101562 160.757812 175.269531 C 161.007812 175.4375 161.238281 175.628906 161.449219 175.84375 C 161.664062 176.058594 161.851562 176.292969 162.015625 176.542969 C 162.183594 176.796875 162.324219 177.0625 162.433594 177.339844 C 162.546875 177.621094 162.632812 177.90625 162.6875 178.203125 C 162.742188 178.5 162.769531 178.800781 162.765625 179.101562 Z M 162.765625 179.101562 "/>
<path style=" stroke:none;fill-rule:nonzero;fill:rgb(79.998779%,84.709167%,89.7995%);fill-opacity:1;" d="M 223.535156 179.101562 C 223.535156 179.402344 223.503906 179.703125 223.445312 180 C 223.386719 180.296875 223.300781 180.585938 223.183594 180.867188 C 223.066406 181.144531 222.925781 181.410156 222.757812 181.664062 C 222.589844 181.914062 222.398438 182.148438 222.183594 182.359375 C 221.96875 182.574219 221.734375 182.765625 221.484375 182.933594 C 221.230469 183.101562 220.964844 183.246094 220.6875 183.359375 C 220.40625 183.476562 220.117188 183.5625 219.820312 183.625 C 219.523438 183.683594 219.222656 183.710938 218.917969 183.710938 C 218.617188 183.710938 218.316406 183.683594 218.019531 183.625 C 217.722656 183.5625 217.433594 183.476562 217.152344 183.359375 C 216.875 183.246094 216.609375 183.101562 216.355469 182.933594 C 216.105469 182.765625 215.871094 182.574219 215.65625 182.359375 C 215.441406 182.148438 215.25 181.914062 215.082031 181.664062 C 214.914062 181.410156 214.773438 181.144531 214.65625 180.867188 C 214.539062 180.585938 214.453125 180.296875 214.394531 180 C 214.335938 179.703125 214.304688 179.402344 214.304688 179.101562 C 214.304688 178.796875 214.335938 178.5 214.394531 178.203125 C 214.453125 177.90625 214.539062 177.617188 214.65625 177.335938 C 214.773438 177.058594 214.914062 176.792969 215.082031 176.539062 C 215.25 176.289062 215.441406 176.054688 215.65625 175.839844 C 215.871094 175.625 216.105469 175.433594 216.355469 175.265625 C 216.609375 175.097656 216.875 174.957031 217.152344 174.839844 C 217.433594 174.726562 217.722656 174.636719 218.019531 174.578125 C 218.316406 174.519531 218.617188 174.492188 218.917969 174.492188 C 219.222656 174.492188 219.523438 174.519531 219.820312 174.578125 C 220.117188 174.636719 220.40625 174.726562 220.6875 174.839844 C 220.964844 174.957031 221.230469 175.097656 221.484375 175.265625 C 221.734375 175.433594 221.96875 175.625 222.183594 175.839844 C 222.398438 176.054688 222.589844 176.289062 222.757812 176.539062 C 222.925781 176.792969 223.066406 177.058594 223.183594 177.335938 C 223.300781 177.617188 223.386719 177.90625 223.445312 178.203125 C 223.503906 178.5 223.535156 178.796875 223.535156 179.101562 Z M 223.535156 179.101562 "/>
<path style=" stroke:none;fill-rule:nonzero;fill:rgb(79.998779%,84.709167%,89.7995%);fill-opacity:1;" d="M 151.757812 192.988281 L 165.046875 192.988281 L 165.046875 200.433594 C 165.046875 200.851562 164.964844 201.257812 164.804688 201.644531 C 164.644531 202.03125 164.414062 202.375 164.117188 202.671875 C 163.820312 202.96875 163.476562 203.199219 163.089844 203.359375 C 162.703125 203.519531 162.296875 203.597656 161.875 203.597656 L 155.203125 203.597656 C 154.785156 203.597656 154.378906 203.519531 153.992188 203.359375 C 153.605469 203.199219 153.261719 202.96875 152.964844 202.671875 C 152.667969 202.375 152.4375 202.03125 152.277344 201.644531 C 152.117188 201.257812 152.035156 200.851562 152.035156 200.433594 L 152.035156 192.988281 Z M 151.757812 192.988281 "/>
<path style=" stroke:none;fill-rule:nonzero;fill:rgb(79.998779%,84.709167%,89.7995%);fill-opacity:1;" d="M 212.082031 192.988281 L 225.367188 192.988281 L 225.367188 200.433594 C 225.367188 200.851562 225.289062 201.257812 225.128906 201.644531 C 224.96875 202.03125 224.738281 202.375 224.441406 202.671875 C 224.144531 202.96875 223.800781 203.199219 223.414062 203.359375 C 223.023438 203.519531 222.621094 203.597656 222.199219 203.597656 L 215.25 203.597656 C 214.828125 203.597656 214.425781 203.519531 214.039062 203.359375 C 213.648438 203.199219 213.304688 202.96875 213.007812 202.671875 C 212.710938 202.375 212.484375 202.03125 212.324219 201.644531 C 212.160156 201.257812 212.082031 200.851562 212.082031 200.433594 Z M 212.082031 192.988281 "/>
</g>
</svg>
